<?xml version="1.0" encoding="UTF-8"?>
<svg xmlns="http://www.w3.org/2000/svg" xmlns:xlink="http://www.w3.org/1999/xlink" width="104pt" height="104pt" viewBox="0 0 104 104" version="1.1">
<g id="surface1">
<path style=" stroke:none;fill-rule:nonzero;fill:#107A03;fill-opacity:1;" d="M 31.515625 0 C 22.835938 0 15.757813 7.078125 15.757813 15.757813 L 15.757813 43.332031 L 3.9375 43.332031 C 1.769531 43.332031 0 45.101563 0 47.273438 L 0 70.910156 C 0 73.078125 1.769531 74.847656 3.9375 74.847656 L 15.757813 74.847656 L 15.757813 86.667969 C 15.757813 95.34375 22.835938 102.425781 31.515625 102.425781 L 78.789063 102.425781 C 87.46875 102.425781 94.546875 95.34375 94.546875 86.667969 L 94.546875 31.515625 C 94.546875 27.328125 90.714844 23.359375 83.835938 16.621094 C 82.882813 15.679688 81.851563 14.632813 80.878906 13.664063 C 79.910156 12.695313 78.863281 11.789063 77.925781 10.832031 C 71.1875 3.953125 67.214844 0 63.03125 0 Z M 31.515625 7.878906 L 60.199219 7.878906 C 63.046875 8.601563 63.03125 12.019531 63.03125 15.511719 L 63.03125 27.574219 C 63.03125 29.746094 64.800781 31.515625 66.96875 31.515625 L 78.789063 31.515625 C 82.710938 31.515625 86.667969 31.53125 86.667969 35.453125 L 86.667969 86.667969 C 86.667969 91.023438 83.144531 94.546875 78.789063 94.546875 L 31.515625 94.546875 C 27.160156 94.546875 23.636719 91.023438 23.636719 86.667969 L 23.636719 74.847656 L 70.910156 74.847656 C 73.078125 74.847656 74.847656 73.078125 74.847656 70.910156 L 74.847656 47.273438 C 74.847656 45.101563 73.078125 43.332031 70.910156 43.332031 L 23.636719 43.332031 L 23.636719 15.757813 C 23.636719 11.402344 27.160156 7.878906 31.515625 7.878906 Z M 38.410156 46.65625 C 40.515625 46.65625 42.410156 47.074219 43.949219 47.886719 C 44.210938 48.027344 44.273438 48.351563 44.195313 48.625 L 43.210938 52.8125 C 43.164063 52.996094 43.027344 53.105469 42.839844 53.183594 C 42.65625 53.257813 42.394531 53.273438 42.226563 53.183594 C 41.5625 52.796875 40.148438 52.195313 38.285156 52.195313 C 36.871094 52.195313 35.945313 52.71875 35.945313 53.675781 C 35.945313 54.644531 36.671875 55.242188 39.394531 56.382813 C 43.257813 57.984375 45.058594 60.320313 45.058594 63.769531 C 45.058594 67.324219 42.71875 71.523438 36.191406 71.523438 C 33.667969 71.523438 31.222656 70.664063 30.039063 69.925781 C 29.808594 69.785156 29.730469 69.570313 29.792969 69.308594 L 30.777344 65 C 30.824219 64.800781 30.960938 64.707031 31.144531 64.628906 C 31.347656 64.554688 31.46875 64.523438 31.636719 64.628906 C 32.730469 65.277344 34.59375 65.984375 36.4375 65.984375 C 37.410156 65.984375 39.023438 65.738281 39.023438 64.136719 C 39.023438 63.214844 38.59375 62.539063 36.070313 61.554688 C 32.054688 59.953125 30.039063 57.460938 30.039063 54.167969 C 30.039063 49.765625 33.484375 46.65625 38.410156 46.65625 Z M 19.082031 47.027344 C 21.636719 47.027344 23.511719 47.488281 24.375 48.011719 C 24.605469 48.148438 24.683594 48.488281 24.621094 48.75 L 23.757813 52.6875 C 23.714844 52.875 23.558594 52.980469 23.390625 53.058594 C 23.222656 53.136719 22.945313 53.136719 22.773438 53.058594 C 22.050781 52.703125 20.929688 52.320313 19.328125 52.320313 C 15.757813 52.320313 13.664063 54.859375 13.664063 59.089844 C 13.664063 63.261719 15.742188 65.738281 19.328125 65.738281 C 20.589844 65.738281 22.050781 65.523438 22.898438 65.125 C 23.066406 65.046875 23.222656 65.03125 23.390625 65.125 C 23.558594 65.214844 23.730469 65.429688 23.757813 65.617188 L 24.375 69.554688 C 24.421875 69.816406 24.359375 70.046875 24.128906 70.171875 C 23.175781 70.679688 21.097656 71.277344 18.710938 71.277344 C 12.003906 71.277344 7.632813 66.632813 7.632813 59.460938 C 7.632813 52.011719 12.203125 47.027344 19.082031 47.027344 Z M 49.734375 47.148438 L 54.78125 47.148438 C 55.058594 47.148438 55.320313 47.363281 55.398438 47.640625 L 57.859375 57.121094 C 58.320313 58.921875 58.722656 60.675781 59.089844 62.414063 C 59.460938 60.738281 59.859375 58.984375 60.320313 57.246094 L 62.90625 47.640625 C 62.984375 47.363281 63.230469 47.148438 63.523438 47.148438 L 68.445313 47.148438 C 68.648438 47.148438 68.816406 47.242188 68.9375 47.394531 C 69.0625 47.550781 69 47.703125 68.9375 47.886719 L 62.167969 70.539063 C 62.089844 70.800781 61.828125 71.03125 61.554688 71.03125 L 56.257813 71.03125 C 55.984375 71.03125 55.722656 70.800781 55.644531 70.539063 L 49.121094 47.886719 C 49.058594 47.703125 49.121094 47.550781 49.242188 47.394531 C 49.367188 47.242188 49.535156 47.148438 49.734375 47.148438 Z "/>
</g>
</svg>
