<?xml version="1.0" encoding="UTF-8"?>
<svg xmlns="http://www.w3.org/2000/svg" xmlns:xlink="http://www.w3.org/1999/xlink" width="104pt" height="104pt" viewBox="0 0 104 104" version="1.1">
<g id="surface1">
<path style=" stroke:none;fill-rule:nonzero;fill:#F51717;fill-opacity:1;" d="M 27.574219 0 C 18.898438 0 11.816406 7.078125 11.816406 15.757813 L 11.816406 86.667969 C 11.816406 95.34375 18.898438 102.425781 27.574219 102.425781 L 74.847656 102.425781 C 83.527344 102.425781 90.605469 95.34375 90.605469 86.667969 L 90.605469 31.515625 C 90.605469 27.328125 86.773438 23.359375 79.894531 16.621094 C 78.941406 15.679688 77.910156 14.632813 76.941406 13.664063 C 75.972656 12.695313 74.925781 11.789063 73.988281 10.832031 C 67.246094 3.953125 63.277344 0 59.089844 0 Z M 27.574219 7.878906 L 56.257813 7.878906 C 59.105469 8.601563 59.089844 12.019531 59.089844 15.511719 L 59.089844 27.574219 C 59.089844 29.746094 60.859375 31.515625 63.03125 31.515625 L 74.847656 31.515625 C 78.773438 31.515625 82.726563 31.53125 82.726563 35.453125 L 82.726563 86.667969 C 82.726563 91.023438 79.203125 94.546875 74.847656 94.546875 L 27.574219 94.546875 C 23.222656 94.546875 19.695313 91.023438 19.695313 86.667969 L 19.695313 15.757813 C 19.695313 11.402344 23.222656 7.878906 27.574219 7.878906 Z M 48.257813 35.453125 C 46.550781 35.453125 44.824219 36.378906 44.070313 37.792969 C 43.316406 39.210938 43.257813 40.792969 43.457031 42.472656 C 43.765625 45.070313 45.257813 48.257813 46.78125 51.335938 C 45.980469 54.199219 45.566406 56.765625 44.316406 59.828125 C 42.792969 63.585938 40.949219 66.554688 39.148438 69.679688 C 36.777344 70.816406 33.855469 71.832031 32.128906 73 C 30.253906 74.277344 28.730469 75.402344 27.945313 77.0625 C 27.558594 77.894531 27.4375 79.019531 27.820313 80.019531 C 28.207031 81.019531 29.023438 81.757813 29.914063 82.234375 C 31.730469 83.203125 33.746094 82.605469 35.332031 81.496094 C 36.917969 80.386719 38.425781 78.710938 39.886719 76.695313 C 40.65625 75.617188 41.347656 73.910156 42.101563 72.632813 C 44.457031 71.554688 46.074219 70.386719 48.75 69.433594 C 52.472656 68.109375 55.859375 67.617188 59.335938 66.847656 C 62.152344 68.816406 65.09375 70.292969 68.324219 70.292969 C 70.171875 70.292969 71.585938 70.277344 72.878906 69.554688 C 74.171875 68.832031 74.847656 67.167969 74.847656 65.863281 C 74.847656 64.816406 74.449219 63.753906 73.742188 63.03125 C 73.03125 62.308594 72.078125 61.800781 71.15625 61.554688 C 69.308594 61.046875 67.246094 61.152344 64.753906 61.429688 C 63.476563 61.570313 61.738281 62.261719 60.320313 62.539063 C 59.953125 62.246094 59.582031 62.367188 59.214844 62.046875 C 56.152344 59.335938 53.335938 55.660156 51.210938 51.949219 C 51.058594 51.671875 51.121094 51.488281 50.964844 51.210938 C 51.488281 49.179688 52.457031 46.828125 52.6875 45.058594 C 52.980469 42.734375 52.980469 40.671875 52.441406 38.902344 C 52.179688 38.023438 51.84375 37.101563 51.089844 36.4375 C 50.335938 35.777344 49.257813 35.453125 48.257813 35.453125 Z M 47.765625 39.394531 C 47.828125 39.363281 47.949219 39.394531 48.257813 39.394531 C 48.472656 39.394531 48.351563 39.363281 48.378906 39.394531 C 48.410156 39.425781 48.625 39.609375 48.75 40.007813 C 48.996094 40.808594 49.011719 42.410156 48.75 44.441406 C 48.734375 44.59375 48.65625 44.886719 48.625 45.058594 C 48.335938 44.085938 47.488281 42.734375 47.394531 41.980469 C 47.257813 40.761719 47.488281 39.917969 47.640625 39.640625 C 47.71875 39.5 47.703125 39.425781 47.765625 39.394531 Z M 49.488281 56.136719 C 51.257813 58.859375 53.335938 61.398438 55.644531 63.644531 C 52.84375 64.382813 50.242188 64.722656 47.394531 65.738281 C 46.472656 66.0625 45.949219 66.507813 45.058594 66.847656 C 46.011719 64.875 47.164063 63.382813 48.011719 61.308594 C 48.75 59.476563 48.875 57.953125 49.488281 56.136719 Z M 68.570313 65.246094 C 69.261719 65.230469 69.800781 65.261719 70.171875 65.371094 C 70.648438 65.507813 70.863281 65.691406 70.910156 65.738281 C 70.957031 65.785156 70.910156 65.722656 70.910156 65.863281 C 70.910156 66.445313 71 66.0625 70.910156 66.109375 C 70.816406 66.152344 69.941406 66.355469 68.324219 66.355469 C 67.675781 66.355469 66.90625 65.539063 66.230469 65.371094 C 67.03125 65.324219 67.878906 65.261719 68.570313 65.246094 Z M 35.453125 75.710938 C 34.625 76.679688 33.746094 77.847656 33.117188 78.296875 C 32.160156 78.972656 31.945313 78.878906 31.761719 78.789063 C 31.546875 78.679688 31.652344 78.664063 31.636719 78.664063 C 31.867188 78.28125 32.808594 77.25 34.347656 76.203125 C 34.59375 76.035156 35.175781 75.878906 35.453125 75.710938 Z "/>
</g>
</svg>
