<?xml version="1.0" encoding="UTF-8"?>
<svg xmlns="http://www.w3.org/2000/svg" xmlns:xlink="http://www.w3.org/1999/xlink" width="104pt" height="104pt" viewBox="0 0 104 104" version="1.1">
<g id="surface1">
<path style=" stroke:none;fill-rule:nonzero;fill:#E13D14;fill-opacity:1;" d="M 27.574219 0 C 18.898438 0 11.816406 7.078125 11.816406 15.757813 L 11.816406 86.667969 C 11.816406 95.34375 18.898438 102.425781 27.574219 102.425781 L 74.847656 102.425781 C 83.527344 102.425781 90.605469 95.34375 90.605469 86.667969 L 90.605469 31.515625 C 90.605469 27.328125 86.773438 23.359375 79.894531 16.621094 C 78.941406 15.679688 77.910156 14.632813 76.941406 13.664063 C 75.972656 12.695313 74.925781 11.789063 73.988281 10.832031 C 67.246094 3.953125 63.277344 0 59.089844 0 Z M 27.574219 7.878906 L 56.257813 7.878906 C 59.105469 8.601563 59.089844 12.019531 59.089844 15.511719 L 59.089844 27.574219 C 59.089844 29.746094 60.859375 31.515625 63.03125 31.515625 L 74.847656 31.515625 C 78.773438 31.515625 82.726563 31.53125 82.726563 35.453125 L 82.726563 86.667969 C 82.726563 91.023438 79.203125 94.546875 74.847656 94.546875 L 27.574219 94.546875 C 23.222656 94.546875 19.695313 91.023438 19.695313 86.667969 L 19.695313 15.757813 C 19.695313 11.402344 23.222656 7.878906 27.574219 7.878906 Z M 40.625 38.039063 C 38.792969 38.238281 37.46875 39.902344 37.671875 41.734375 C 37.871094 43.5625 39.53125 44.886719 41.363281 44.6875 L 49.242188 44.6875 C 55.84375 44.6875 59.105469 45.8125 60.320313 46.78125 C 61.539063 47.75 61.675781 48.75 61.675781 51.210938 C 61.675781 53.011719 60.84375 54.644531 59.582031 55.890625 C 58.320313 57.136719 56.644531 57.738281 56.011719 57.738281 C 51.367188 57.738281 49.859375 56.460938 49.121094 55.644531 C 48.75 55.226563 48.625 54.921875 48.503906 54.660156 C 48.472656 54.597656 48.457031 54.566406 48.378906 54.414063 C 48.335938 54.335938 48.320313 54.199219 48.132813 53.921875 C 48.089844 53.84375 47.980469 53.78125 47.886719 53.675781 C 47.796875 53.566406 47.519531 53.304688 47.519531 53.304688 C 47.519531 53.304688 46.65625 52.6875 46.65625 52.6875 C 46.65625 52.6875 44.8125 52.566406 44.8125 52.566406 C 44.8125 52.566406 43.085938 53.429688 43.085938 53.429688 C 43.085938 53.429688 42.347656 54.289063 42.347656 54.289063 C 42.347656 54.289063 42.273438 54.644531 42.226563 54.78125 C 42.179688 54.921875 42.117188 55.058594 42.101563 55.152344 C 42.039063 55.503906 41.980469 55.660156 41.980469 55.765625 C 41.964844 55.96875 41.980469 56.011719 41.980469 56.136719 L 41.980469 76.324219 C 41.980469 78.15625 43.472656 79.648438 45.304688 79.648438 C 47.132813 79.648438 48.625 78.15625 48.625 76.324219 L 48.625 63.03125 C 50.582031 63.832031 52.980469 64.382813 56.011719 64.382813 C 59.105469 64.382813 61.96875 62.832031 64.261719 60.566406 C 66.554688 58.304688 68.324219 55.042969 68.324219 51.210938 C 68.324219 48.027344 67.585938 44.148438 64.382813 41.609375 C 61.183594 39.070313 56.503906 38.039063 49.242188 38.039063 L 41.363281 38.039063 C 41.242188 38.039063 41.117188 38.039063 40.996094 38.039063 C 40.871094 38.039063 40.75 38.039063 40.625 38.039063 Z "/>
</g>
</svg>
