<?xml version="1.0" encoding="UTF-8"?>
<svg xmlns="http://www.w3.org/2000/svg" xmlns:xlink="http://www.w3.org/1999/xlink" width="104pt" height="104pt" viewBox="0 0 104 104" version="1.1">
<g id="surface1">
<path style=" stroke:none;fill-rule:nonzero;fill:#0076C1;fill-opacity:1;" d="M 27.574219 0 C 18.898438 0 11.816406 7.078125 11.816406 15.757813 L 11.816406 86.667969 C 11.816406 95.34375 18.898438 102.425781 27.574219 102.425781 L 74.847656 102.425781 C 83.527344 102.425781 90.605469 95.34375 90.605469 86.667969 L 90.605469 31.515625 C 90.605469 27.328125 86.773438 23.359375 79.894531 16.621094 C 78.941406 15.679688 77.910156 14.632813 76.941406 13.664063 C 75.972656 12.695313 74.925781 11.789063 73.988281 10.832031 C 67.246094 3.953125 63.277344 0 59.089844 0 Z M 27.574219 7.878906 L 56.257813 7.878906 C 59.105469 8.601563 59.089844 12.019531 59.089844 15.511719 L 59.089844 27.574219 C 59.089844 29.746094 60.859375 31.515625 63.03125 31.515625 L 74.847656 31.515625 C 78.773438 31.515625 82.726563 31.53125 82.726563 35.453125 L 82.726563 86.667969 C 82.726563 91.023438 79.203125 94.546875 74.847656 94.546875 L 27.574219 94.546875 C 23.222656 94.546875 19.695313 91.023438 19.695313 86.667969 L 19.695313 15.757813 C 19.695313 11.402344 23.222656 7.878906 27.574219 7.878906 Z M 71.15625 42.71875 C 70.355469 42.6875 69.539063 42.808594 68.816406 42.964844 C 67.355469 43.289063 66.140625 44.042969 65.246094 44.933594 C 63.460938 46.703125 62.90625 48.71875 62.90625 50.472656 C 62.90625 57.167969 62.539063 62.660156 61.675781 66.109375 C 61.246094 67.832031 60.644531 69 60.199219 69.554688 C 59.753906 70.109375 59.613281 70.171875 59.089844 70.171875 C 58.984375 70.171875 59.03125 70.203125 58.84375 70.046875 C 58.660156 69.894531 58.289063 69.460938 57.984375 68.816406 C 57.367188 67.523438 56.828125 65.308594 56.503906 62.90625 C 55.859375 58.246094 55.890625 52.980469 55.890625 50.351563 C 55.890625 50.273438 55.890625 50.058594 55.890625 49.980469 C 55.75 48.65625 54.675781 47.625 53.335938 47.535156 C 51.996094 47.441406 50.796875 48.320313 50.472656 49.613281 C 49.242188 58.492188 47.765625 65.0625 46.042969 69.0625 C 45.179688 71.0625 44.257813 72.402344 43.457031 73.125 C 42.871094 73.648438 42.394531 73.757813 41.855469 73.863281 C 41.792969 73.695313 41.6875 73.710938 41.609375 73.371094 C 41.347656 72.078125 41.347656 69.847656 41.488281 67.460938 C 41.765625 62.691406 42.671875 57.429688 42.964844 55.273438 C 43.226563 53.335938 42.378906 51.210938 40.871094 50.105469 C 39.363281 48.996094 37.640625 48.734375 35.945313 48.996094 C 32.578125 49.535156 29.128906 51.964844 27.082031 56.136719 C 26.574219 57.027344 26.589844 58.121094 27.144531 58.984375 C 27.683594 59.859375 28.667969 60.351563 29.683594 60.261719 C 30.714844 60.183594 31.609375 59.539063 32.007813 58.597656 C 33.316406 55.9375 35.515625 54.734375 36.808594 54.535156 C 37.363281 54.445313 37.53125 54.535156 37.546875 54.535156 C 37.300781 56.273438 36.253906 61.859375 35.945313 67.09375 C 35.792969 69.707031 35.730469 72.261719 36.191406 74.480469 C 36.425781 75.585938 36.792969 76.664063 37.546875 77.679688 C 38.300781 78.695313 39.777344 79.527344 41.242188 79.527344 C 43.441406 79.527344 45.519531 78.679688 47.148438 77.1875 C 48.78125 75.695313 50.027344 73.742188 51.089844 71.277344 C 51.503906 70.324219 51.703125 68.324219 52.074219 67.214844 C 52.398438 68.539063 52.503906 70 53.058594 71.15625 C 53.597656 72.261719 54.273438 73.386719 55.273438 74.234375 C 56.273438 75.078125 57.644531 75.585938 59.089844 75.585938 C 61.167969 75.585938 63.121094 74.539063 64.382813 73 C 65.644531 71.464844 66.429688 69.648438 66.96875 67.460938 C 68.0625 63.09375 68.324219 57.351563 68.324219 50.472656 C 68.324219 50.304688 68.617188 49.195313 69.0625 48.75 C 69.507813 48.304688 70 47.886719 72.140625 48.503906 C 73.109375 48.875 74.21875 48.65625 74.972656 47.949219 C 75.742188 47.242188 76.046875 46.164063 75.757813 45.164063 C 75.464844 44.164063 74.632813 43.410156 73.617188 43.210938 C 72.742188 42.964844 71.957031 42.75 71.15625 42.71875 Z "/>
</g>
</svg>
