<?xml version="1.0" encoding="UTF-8"?>
<svg xmlns="http://www.w3.org/2000/svg" xmlns:xlink="http://www.w3.org/1999/xlink" width="104pt" height="104pt" viewBox="0 0 104 104" version="1.1">
<g id="surface1">
<path style=" stroke:none;fill-rule:nonzero;fill:#165D02;fill-opacity:1;" d="M 27.574219 0 C 18.898438 0 11.816406 7.078125 11.816406 15.757813 L 11.816406 86.667969 C 11.816406 95.34375 18.898438 102.425781 27.574219 102.425781 L 74.847656 102.425781 C 83.527344 102.425781 90.605469 95.34375 90.605469 86.667969 L 90.605469 31.515625 C 90.605469 27.328125 86.773438 23.359375 79.894531 16.621094 C 78.941406 15.679688 77.910156 14.632813 76.941406 13.664063 C 75.972656 12.695313 74.925781 11.789063 73.988281 10.832031 C 67.246094 3.953125 63.277344 0 59.089844 0 Z M 27.574219 7.878906 L 56.257813 7.878906 C 59.105469 8.601563 59.089844 12.019531 59.089844 15.511719 L 59.089844 27.574219 C 59.089844 29.746094 60.859375 31.515625 63.03125 31.515625 L 74.847656 31.515625 C 78.773438 31.515625 82.726563 31.53125 82.726563 35.453125 L 82.726563 86.667969 C 82.726563 91.023438 79.203125 94.546875 74.847656 94.546875 L 27.574219 94.546875 C 23.222656 94.546875 19.695313 91.023438 19.695313 86.667969 L 19.695313 15.757813 C 19.695313 11.402344 23.222656 7.878906 27.574219 7.878906 Z M 36.191406 38.039063 C 34.960938 38.269531 33.976563 39.179688 33.640625 40.378906 C 33.285156 41.578125 33.667969 42.871094 34.59375 43.703125 C 34.59375 43.703125 47.597656 56.707031 48.996094 58.105469 C 50.011719 59.121094 51.304688 59.738281 52.9375 59.828125 C 54.566406 59.921875 56.460938 59.261719 57.738281 57.984375 L 67.339844 48.378906 C 68.632813 47.089844 68.632813 44.996094 67.339844 43.703125 C 66.046875 42.410156 63.953125 42.410156 62.660156 43.703125 C 62.660156 43.703125 56.089844 50.273438 53.304688 53.058594 C 51.488281 51.257813 39.269531 39.023438 39.269531 39.023438 C 38.5625 38.300781 37.5625 37.933594 36.5625 38.039063 C 36.4375 38.039063 36.316406 38.039063 36.191406 38.039063 Z M 53.550781 60.320313 C 51.921875 60.230469 50.164063 60.875 48.875 62.167969 L 34.59375 76.570313 C 33.640625 77.371094 33.222656 78.648438 33.53125 79.863281 C 33.824219 81.082031 34.792969 82.003906 36.007813 82.28125 C 37.222656 82.542969 38.484375 82.097656 39.269531 81.125 L 53.304688 67.09375 C 55.121094 68.910156 62.660156 76.449219 62.660156 76.449219 C 63.953125 77.742188 66.046875 77.742188 67.339844 76.449219 C 68.632813 75.15625 68.632813 73.0625 67.339844 71.769531 C 67.339844 71.769531 59 63.554688 57.613281 62.167969 C 56.597656 61.152344 55.183594 60.414063 53.550781 60.320313 Z "/>
</g>
</svg>
