<?xml version="1.0" encoding="UTF-8"?>
<svg xmlns="http://www.w3.org/2000/svg" xmlns:xlink="http://www.w3.org/1999/xlink" width="104pt" height="104pt" viewBox="0 0 104 104" version="1.1">
<g id="surface1">
<path style=" stroke:none;fill-rule:nonzero;fill:#D00983;fill-opacity:1;" d="M 31.636719 0 C 22.960938 0 15.878906 7.078125 15.878906 15.757813 L 15.878906 43.332031 L 3.9375 43.332031 C 1.769531 43.332031 0 45.101563 0 47.273438 L 0 70.910156 C 0 73.078125 1.769531 74.847656 3.9375 74.847656 L 15.878906 74.847656 L 15.878906 86.667969 C 15.878906 95.34375 22.960938 102.425781 31.636719 102.425781 L 78.789063 102.425781 C 87.46875 102.425781 94.546875 95.34375 94.546875 86.667969 L 94.546875 31.515625 C 94.546875 27.328125 90.714844 23.359375 83.835938 16.621094 C 82.882813 15.679688 81.851563 14.632813 80.878906 13.664063 C 79.910156 12.695313 78.863281 11.789063 77.925781 10.832031 C 71.1875 3.953125 67.214844 0 63.03125 0 Z M 60.199219 7.753906 C 63.046875 8.480469 63.03125 12.019531 63.03125 15.511719 L 63.03125 27.574219 C 63.03125 29.746094 64.800781 31.515625 66.96875 31.515625 L 78.789063 31.515625 C 82.710938 31.515625 86.667969 31.53125 86.667969 35.453125 L 86.667969 86.667969 C 86.667969 91.023438 83.144531 94.546875 78.789063 94.546875 L 31.390625 94.546875 C 27.039063 94.546875 23.511719 91.023438 23.511719 86.667969 L 23.511719 74.847656 L 70.910156 74.847656 C 73.078125 74.847656 74.847656 73.078125 74.847656 70.910156 L 74.847656 47.273438 C 74.847656 45.101563 73.078125 43.332031 70.910156 43.332031 L 23.511719 43.332031 L 23.511719 15.757813 C 23.511719 11.402344 27.039063 7.878906 31.390625 7.878906 Z M 60.074219 46.902344 C 62.753906 46.902344 64.890625 47.457031 65.984375 48.011719 C 66.246094 48.132813 66.414063 48.457031 66.355469 48.75 L 65.371094 52.9375 C 65.324219 53.121094 65.167969 53.226563 65 53.304688 C 64.816406 53.382813 64.675781 53.398438 64.507813 53.304688 C 63.628906 52.859375 62.398438 52.441406 60.074219 52.441406 C 56.257813 52.441406 53.921875 54.90625 53.921875 59.089844 C 53.921875 63.277344 56.152344 65.863281 59.707031 65.863281 C 60.398438 65.863281 60.953125 65.816406 61.308594 65.738281 L 61.308594 62.046875 L 58.84375 62.046875 C 58.492188 62.046875 58.230469 61.785156 58.230469 61.429688 L 58.230469 57.492188 C 58.230469 57.136719 58.492188 56.75 58.84375 56.75 L 66.355469 56.75 C 66.707031 56.75 66.96875 57.136719 66.96875 57.492188 L 66.96875 69.308594 C 66.96875 69.570313 66.847656 69.832031 66.601563 69.925781 C 64.921875 70.554688 62.167969 71.277344 59.582031 71.277344 C 55.78125 71.277344 52.996094 70.246094 50.964844 68.078125 C 49.011719 65.96875 47.886719 62.832031 47.886719 59.335938 C 47.917969 51.796875 52.71875 46.902344 60.074219 46.902344 Z M 34.347656 47.027344 C 37.300781 47.027344 39.394531 47.671875 40.871094 48.996094 C 42.378906 50.289063 43.210938 52.335938 43.210938 54.660156 C 43.195313 57.074219 42.5625 59.105469 41.242188 60.445313 C 39.609375 62.121094 37.179688 63.03125 34.222656 63.03125 C 33.871094 63.03125 33.5 63.046875 33.238281 63.03125 L 33.238281 70.417969 C 33.238281 70.769531 32.976563 71.03125 32.625 71.03125 L 28.066406 71.03125 C 27.714844 71.03125 27.453125 70.769531 27.453125 70.417969 L 27.453125 48.132813 C 27.453125 47.828125 27.777344 47.582031 28.066406 47.519531 C 29.746094 47.195313 31.839844 47.027344 34.347656 47.027344 Z M 14.527344 47.148438 L 19.082031 47.148438 C 19.433594 47.148438 19.820313 47.410156 19.820313 47.765625 L 19.820313 62.046875 C 19.820313 68.308594 17.171875 71.402344 11.941406 71.402344 C 10.726563 71.402344 9.292969 71.125 8.371094 70.785156 C 8.109375 70.679688 7.972656 70.460938 8 70.171875 L 8.496094 65.984375 C 8.523438 65.800781 8.695313 65.585938 8.863281 65.492188 C 9.03125 65.398438 9.1875 65.429688 9.355469 65.492188 C 9.800781 65.644531 10.511719 65.863281 11.449219 65.863281 C 12.648438 65.863281 13.910156 65.585938 13.910156 62.046875 L 13.910156 47.765625 C 13.910156 47.410156 14.171875 47.148438 14.527344 47.148438 Z M 34.46875 52.074219 C 33.898438 52.074219 33.5 52.167969 33.238281 52.195313 L 33.238281 57.859375 C 33.484375 57.890625 33.855469 57.859375 34.222656 57.859375 C 36.316406 57.859375 37.425781 56.707031 37.425781 54.78125 C 37.425781 52.550781 35.824219 52.074219 34.46875 52.074219 Z "/>
</g>
</svg>
