<?xml version="1.0" encoding="UTF-8"?>
<svg xmlns="http://www.w3.org/2000/svg" xmlns:xlink="http://www.w3.org/1999/xlink" width="104pt" height="104pt" viewBox="0 0 104 104" version="1.1">
<g id="surface1">
<path style=" stroke:none;fill-rule:nonzero;fill:#D00983;fill-opacity:1;" d="M 31.636719 0 C 22.960938 0 15.878906 7.078125 15.878906 15.757813 L 15.878906 43.332031 L 3.9375 43.332031 C 1.769531 43.332031 0 45.101563 0 47.273438 L 0 70.910156 C 0 73.078125 1.769531 74.847656 3.9375 74.847656 L 15.878906 74.847656 L 15.878906 86.667969 C 15.878906 95.34375 22.960938 102.425781 31.636719 102.425781 L 78.789063 102.425781 C 87.46875 102.425781 94.546875 95.34375 94.546875 86.667969 L 94.546875 31.515625 C 94.546875 27.328125 90.714844 23.359375 83.835938 16.621094 C 82.882813 15.679688 81.851563 14.632813 80.878906 13.664063 C 79.910156 12.695313 78.863281 11.789063 77.925781 10.832031 C 71.1875 3.953125 67.214844 0 63.03125 0 Z M 60.199219 7.753906 C 63.046875 8.480469 63.03125 12.019531 63.03125 15.511719 L 63.03125 27.574219 C 63.03125 29.746094 64.800781 31.515625 66.96875 31.515625 L 78.789063 31.515625 C 82.710938 31.515625 86.667969 31.53125 86.667969 35.453125 L 86.667969 86.667969 C 86.667969 91.023438 83.144531 94.546875 78.789063 94.546875 L 31.390625 94.546875 C 27.039063 94.546875 23.511719 91.023438 23.511719 86.667969 L 23.511719 74.847656 L 74.847656 74.847656 C 77.019531 74.847656 78.789063 73.078125 78.789063 70.910156 L 78.789063 47.273438 C 78.789063 45.101563 77.019531 43.332031 74.847656 43.332031 L 23.511719 43.332031 L 23.511719 15.757813 C 23.511719 11.402344 27.039063 7.878906 31.390625 7.878906 Z M 64.136719 46.902344 C 66.816406 46.902344 68.96875 47.582031 70.046875 48.132813 C 70.308594 48.257813 70.355469 48.457031 70.292969 48.75 L 69.433594 52.9375 C 69.386719 53.121094 69.246094 53.226563 69.0625 53.304688 C 68.878906 53.382813 68.617188 53.398438 68.445313 53.304688 C 67.585938 52.859375 66.445313 52.441406 64.136719 52.441406 C 60.351563 52.441406 58.105469 54.921875 58.105469 59.089844 C 58.105469 63.261719 60.246094 65.863281 63.769531 65.863281 C 64.460938 65.863281 65.03125 65.816406 65.371094 65.738281 L 65.371094 62.046875 L 62.90625 62.046875 C 62.554688 62.046875 62.292969 61.769531 62.292969 61.429688 L 62.292969 57.367188 C 62.292969 57.027344 62.554688 56.75 62.90625 56.75 L 70.417969 56.75 C 70.769531 56.75 71.03125 57.027344 71.03125 57.367188 L 71.03125 69.308594 C 71.03125 69.570313 70.785156 69.832031 70.539063 69.925781 C 68.878906 70.554688 66.230469 71.15625 63.644531 71.15625 C 59.859375 71.15625 57.042969 70.109375 55.027344 67.953125 C 53.089844 65.863281 52.074219 62.816406 52.074219 59.335938 C 52.105469 51.8125 56.8125 46.902344 64.136719 46.902344 Z M 14.648438 47.027344 C 17.589844 47.027344 19.695313 47.671875 21.175781 48.996094 C 22.667969 50.289063 23.511719 52.351563 23.511719 54.660156 C 23.511719 57.058594 22.851563 59.121094 21.542969 60.445313 C 19.929688 62.121094 17.464844 63.03125 14.527344 63.03125 C 14.171875 63.03125 13.941406 62.921875 13.664063 62.90625 L 13.664063 70.292969 C 13.664063 70.648438 13.402344 70.910156 13.050781 70.910156 L 8.496094 70.910156 C 8.140625 70.910156 7.878906 70.648438 7.878906 70.292969 L 7.878906 48.132813 C 7.878906 47.84375 8.078125 47.582031 8.371094 47.519531 C 10.046875 47.210938 12.15625 47.027344 14.648438 47.027344 Z M 28.191406 47.148438 L 33.484375 47.148438 C 33.714844 47.148438 33.992188 47.304688 34.101563 47.519531 L 38.285156 55.765625 C 38.917969 57.011719 39.515625 58.445313 40.132813 59.953125 C 40.070313 58.273438 40.007813 56.492188 40.007813 54.414063 L 40.007813 47.765625 C 40.007813 47.410156 40.269531 47.148438 40.625 47.148438 L 44.8125 47.148438 C 45.148438 47.148438 45.425781 47.410156 45.425781 47.765625 L 45.425781 70.292969 C 45.425781 70.648438 45.148438 70.910156 44.8125 70.910156 L 40.007813 70.910156 C 39.761719 70.910156 39.625 70.753906 39.515625 70.539063 L 35.207031 61.921875 C 34.546875 60.582031 33.652344 58.84375 32.871094 57 C 32.914063 58.953125 32.992188 61.074219 32.992188 63.523438 L 32.992188 70.292969 C 32.992188 70.648438 32.714844 70.910156 32.375 70.910156 L 28.191406 70.910156 C 27.835938 70.910156 27.574219 70.648438 27.574219 70.292969 L 27.574219 47.765625 C 27.574219 47.410156 27.835938 47.148438 28.191406 47.148438 Z M 13.664063 52.195313 L 13.664063 57.859375 C 13.910156 57.890625 14.15625 57.859375 14.527344 57.859375 C 16.605469 57.859375 17.851563 56.691406 17.851563 54.78125 C 17.851563 52.566406 16.234375 52.195313 14.894531 52.195313 C 14.328125 52.195313 13.925781 52.152344 13.664063 52.195313 Z "/>
</g>
</svg>
