<?xml version="1.0" encoding="UTF-8"?>
<svg xmlns="http://www.w3.org/2000/svg" xmlns:xlink="http://www.w3.org/1999/xlink" width="104pt" height="104pt" viewBox="0 0 104 104" version="1.1">
<g id="surface1">
<path style=" stroke:none;fill-rule:nonzero;fill:#981CD5;fill-opacity:1;" d="M 31.515625 0 C 22.835938 0 15.757813 7.078125 15.757813 15.757813 L 15.757813 43.332031 L 3.9375 43.332031 C 1.769531 43.332031 0 45.101563 0 47.273438 L 0 70.910156 C 0 73.078125 1.769531 74.847656 3.9375 74.847656 L 15.757813 74.847656 L 15.757813 86.667969 C 15.757813 95.34375 22.835938 102.425781 31.515625 102.425781 L 78.789063 102.425781 C 87.46875 102.425781 94.546875 95.34375 94.546875 86.667969 L 94.546875 31.515625 C 94.546875 27.328125 90.652344 23.3125 83.773438 16.574219 C 82.820313 15.632813 81.820313 14.664063 80.867188 13.695313 C 79.878906 12.726563 78.925781 11.726563 77.988281 10.773438 C 71.230469 3.894531 67.214844 0 63.03125 0 Z M 60.230469 7.863281 C 63.078125 8.585938 63.03125 12.078125 63.03125 15.574219 L 63.03125 27.574219 C 63.03125 29.746094 64.800781 31.515625 66.96875 31.515625 L 78.789063 31.515625 C 82.710938 31.515625 86.667969 31.53125 86.667969 35.453125 L 86.667969 86.667969 C 86.667969 91.023438 83.144531 94.546875 78.789063 94.546875 L 31.515625 94.546875 C 27.175781 94.546875 23.636719 91.023438 23.636719 86.667969 L 23.636719 74.847656 L 63.03125 74.847656 C 65.199219 74.847656 66.96875 73.078125 66.96875 70.910156 L 66.96875 47.273438 C 66.96875 45.101563 65.199219 43.332031 63.03125 43.332031 L 23.636719 43.332031 L 23.636719 15.757813 C 23.636719 11.417969 27.175781 7.878906 31.515625 7.878906 Z M 50.089844 47.011719 C 53.011719 47.011719 55.167969 47.65625 56.628906 48.980469 C 58.121094 50.257813 58.984375 52.320313 58.984375 54.644531 C 58.984375 57.027344 58.273438 59.089844 56.96875 60.414063 C 55.351563 62.089844 52.921875 62.96875 49.980469 62.96875 C 49.640625 62.96875 49.335938 62.953125 49.074219 62.9375 L 49.074219 70.277344 C 49.074219 70.632813 48.796875 70.910156 48.441406 70.910156 L 43.949219 70.910156 C 43.59375 70.910156 43.316406 70.632813 43.316406 70.277344 L 43.316406 48.105469 C 43.316406 47.796875 43.546875 47.550781 43.824219 47.488281 C 45.503906 47.179688 47.597656 47.011719 50.089844 47.011719 Z M 12.433594 47.179688 L 26.992188 47.179688 C 27.34375 47.179688 27.621094 47.457031 27.621094 47.8125 L 27.621094 50.734375 C 27.621094 50.859375 27.589844 50.964844 27.53125 51.074219 L 18.679688 65.445313 L 27.144531 65.445313 C 27.5 65.445313 27.777344 65.722656 27.777344 66.078125 L 27.777344 70.292969 C 27.777344 70.632813 27.5 70.910156 27.144531 70.910156 L 11.570313 70.910156 C 11.21875 70.910156 10.957031 70.632813 10.957031 70.292969 L 10.957031 67.539063 C 10.957031 67.429688 10.988281 67.324219 11.046875 67.214844 L 20.097656 52.628906 L 12.433594 52.628906 C 12.078125 52.628906 11.816406 52.351563 11.816406 52.011719 L 11.816406 47.8125 C 11.816406 47.457031 12.078125 47.179688 12.433594 47.179688 Z M 32.070313 47.179688 L 36.59375 47.179688 C 36.945313 47.179688 37.207031 47.457031 37.207031 47.8125 L 37.207031 70.292969 C 37.207031 70.632813 36.945313 70.910156 36.59375 70.910156 L 32.070313 70.910156 C 31.714844 70.910156 31.453125 70.632813 31.453125 70.292969 L 31.453125 47.8125 C 31.453125 47.457031 31.714844 47.179688 32.070313 47.179688 Z M 50.289063 52.136719 C 49.71875 52.136719 49.335938 52.152344 49.074219 52.195313 L 49.074219 57.78125 C 49.304688 57.8125 49.597656 57.8125 49.964844 57.8125 C 52.042969 57.8125 53.242188 56.722656 53.242188 54.796875 C 53.242188 52.597656 51.628906 52.136719 50.289063 52.136719 Z "/>
</g>
</svg>
