<?xml version="1.0" encoding="UTF-8"?>
<svg xmlns="http://www.w3.org/2000/svg" xmlns:xlink="http://www.w3.org/1999/xlink" width="104pt" height="104pt" viewBox="0 0 104 104" version="1.1">
<g id="surface1">
<path style=" stroke:none;fill-rule:nonzero;fill:#928D8C;fill-opacity:1;" d="M 31.636719 0 C 22.960938 0 15.878906 7.078125 15.878906 15.757813 L 15.878906 43.332031 L 3.9375 43.332031 C 1.769531 43.332031 0 45.101563 0 47.273438 L 0 70.910156 C 0 73.078125 1.769531 74.847656 3.9375 74.847656 L 15.878906 74.847656 L 15.878906 86.667969 C 15.878906 95.34375 22.960938 102.425781 31.636719 102.425781 L 78.789063 102.425781 C 87.46875 102.425781 94.546875 95.34375 94.546875 86.667969 L 94.546875 31.515625 C 94.546875 27.328125 90.714844 23.359375 83.835938 16.621094 C 82.882813 15.679688 81.851563 14.632813 80.878906 13.664063 C 79.910156 12.695313 78.863281 11.789063 77.925781 10.832031 C 71.1875 3.953125 67.214844 0 63.03125 0 Z M 60.199219 7.753906 C 63.046875 8.480469 63.03125 12.019531 63.03125 15.511719 L 63.03125 27.574219 C 63.03125 29.746094 64.800781 31.515625 66.96875 31.515625 L 78.789063 31.515625 C 82.710938 31.515625 86.667969 31.53125 86.667969 35.453125 L 86.667969 86.667969 C 86.667969 91.023438 83.144531 94.546875 78.789063 94.546875 L 31.390625 94.546875 C 27.039063 94.546875 23.511719 91.023438 23.511719 86.667969 L 23.511719 74.847656 L 66.96875 74.847656 C 69.140625 74.847656 70.910156 73.078125 70.910156 70.910156 L 70.910156 47.273438 C 70.910156 45.101563 69.140625 43.332031 66.96875 43.332031 L 23.511719 43.332031 L 23.511719 15.757813 C 23.511719 11.402344 27.039063 7.878906 31.390625 7.878906 Z M 11.941406 47.027344 L 23.511719 47.027344 C 23.976563 47.027344 24.375 47.425781 24.375 47.886719 L 24.375 51.089844 C 24.375 51.550781 23.976563 51.949219 23.511719 51.949219 L 20.3125 51.949219 L 20.3125 70.171875 C 20.3125 70.632813 19.914063 71.03125 19.449219 71.03125 L 16.003906 71.03125 C 15.542969 71.03125 15.140625 70.632813 15.140625 70.171875 L 15.140625 51.949219 L 11.941406 51.949219 C 11.480469 51.949219 11.078125 51.550781 11.078125 51.089844 L 11.078125 47.886719 C 11.078125 47.425781 11.480469 47.027344 11.941406 47.027344 Z M 29.175781 47.027344 L 32.746094 47.027344 C 33.101563 47.027344 33.5 47.304688 33.609375 47.640625 L 35.207031 52.195313 C 35.332031 52.550781 35.453125 52.9375 35.578125 53.304688 C 35.683594 52.9375 35.714844 52.582031 35.824219 52.195313 L 37.300781 47.640625 C 37.410156 47.304688 37.808594 47.027344 38.164063 47.027344 L 41.609375 47.027344 C 41.886719 47.027344 42.195313 47.164063 42.347656 47.394531 C 42.503906 47.625 42.5625 47.886719 42.472656 48.132813 L 38.285156 58.84375 L 42.59375 69.554688 C 42.71875 69.695313 42.71875 69.96875 42.71875 70.171875 C 42.71875 70.632813 42.441406 71.03125 41.980469 71.03125 L 38.285156 71.03125 C 37.933594 71.03125 37.546875 70.753906 37.425781 70.417969 L 35.699219 65.738281 C 35.53125 65.230469 35.378906 64.769531 35.207031 64.261719 C 35.054688 64.785156 34.976563 65.246094 34.839844 65.738281 L 33.238281 70.417969 C 33.132813 70.753906 32.855469 71.03125 32.5 71.03125 L 28.929688 71.03125 C 28.652344 71.03125 28.46875 70.894531 28.3125 70.664063 C 28.160156 70.433594 28.097656 70.046875 28.191406 69.800781 L 32.375 58.722656 L 28.3125 48.132813 C 28.222656 47.871094 28.285156 47.625 28.4375 47.394531 C 28.589844 47.164063 28.898438 47.027344 29.175781 47.027344 Z M 47.394531 47.027344 L 58.96875 47.027344 C 59.429688 47.027344 59.828125 47.425781 59.828125 47.886719 L 59.828125 51.089844 C 59.828125 51.550781 59.429688 51.949219 58.96875 51.949219 L 55.765625 51.949219 L 55.765625 70.171875 C 55.765625 70.632813 55.367188 71.03125 54.90625 71.03125 L 51.457031 71.03125 C 50.996094 71.03125 50.597656 70.632813 50.597656 70.171875 L 50.597656 51.949219 L 47.394531 51.949219 C 46.933594 51.949219 46.535156 51.550781 46.535156 51.089844 L 46.535156 47.886719 C 46.535156 47.425781 46.933594 47.027344 47.394531 47.027344 Z "/>
</g>
</svg>
