<?xml version="1.0" encoding="utf-8"?>
<svg xmlns="http://www.w3.org/2000/svg" viewBox="0 0 48 48" width="48" height="48">
  <path d="M13.5 7C10.480226 7 8 9.4802259 8 12.5L8 19.306641C5.7170242 19.976034 4 22.011198 4 24.5L4 33.253906 A 1.50015 1.50015 0 0 0 4 33.740234L4 39.5 A 1.50015 1.50015 0 1 0 7 39.5L7 35L41 35L41 39.5 A 1.50015 1.50015 0 1 0 44 39.5L44 33.746094 A 1.50015 1.50015 0 0 0 44 33.259766L44 24.5C44 22.011198 42.282976 19.976034 40 19.306641L40 12.5C40 9.4802259 37.519774 7 34.5 7L13.5 7 z M 13.5 10L34.5 10C35.898226 10 37 11.101774 37 12.5L37 19L34 19C34 17.895 33.105 17 32 17L28 17C26.895 17 26 17.895 26 19L22 19C22 17.895 21.105 17 20 17L16 17C14.895 17 14 17.895 14 19L11 19L11 12.5C11 11.101774 12.101774 10 13.5 10 z M 9.7402344 22L38.253906 22 A 1.50015 1.50015 0 0 0 38.548828 22.019531C39.919698 22.0492 41 23.120957 41 24.5L41 32L7 32L7 24.5C7 23.119639 8.0823252 22.047196 9.4550781 22.019531 A 1.50015 1.50015 0 0 0 9.7402344 22 z" fill="#FFFFFF" />
</svg>