<?xml version="1.0" encoding="utf-8"?>
<svg xmlns="http://www.w3.org/2000/svg" viewBox="0 0 48 48" width="48" height="48">
  <path d="M9.5 9C5.9290921 9 3 11.929092 3 15.5L3 32.5C3 36.070908 5.9290921 39 9.5 39L38.5 39C42.070908 39 45 36.070908 45 32.5L45 15.5C45 11.929092 42.070908 9 38.5 9L9.5 9 z M 9.5 12L38.5 12C40.445092 12 42 13.554908 42 15.5L42 32.5C42 34.445092 40.445092 36 38.5 36L9.5 36C7.5549079 36 6 34.445092 6 32.5L6 15.5C6 13.554908 7.5549079 12 9.5 12 z M 11 18C9.895 18 9 18.895 9 20L9 22C9 23.105 9.895 24 11 24L15 24C16.105 24 17 23.105 17 22L17 20C17 18.895 16.105 18 15 18L11 18 z M 10.5 28 A 1.50015 1.50015 0 1 0 10.5 31L13.5 31 A 1.50015 1.50015 0 1 0 13.5 28L10.5 28 z M 18.5 28 A 1.50015 1.50015 0 1 0 18.5 31L21.5 31 A 1.50015 1.50015 0 1 0 21.5 28L18.5 28 z M 26.5 28 A 1.50015 1.50015 0 1 0 26.5 31L29.5 31 A 1.50015 1.50015 0 1 0 29.5 28L26.5 28 z M 34.5 28 A 1.50015 1.50015 0 1 0 34.5 31L37.5 31 A 1.50015 1.50015 0 1 0 37.5 28L34.5 28 z" fill="#FFFFFF" />
</svg>