<?xml version="1.0" encoding="utf-8"?>
<svg xmlns="http://www.w3.org/2000/svg" viewBox="0 0 48 48" width="48" height="48">
  <path d="M23.951172 4 A 1.50015 1.50015 0 0 0 23.070312 4.3222656L8.8730469 15.521484C7.0935305 16.919676 6 19.100391 6 21.400391L6 40.5C6 41.133333 6.2367979 41.80711 6.7148438 42.285156C7.1928895 42.763202 7.8666667 43 8.5 43L18.5 43C19.133333 43 19.80711 42.763202 20.285156 42.285156C20.763202 41.80711 21 41.133333 21 40.5L21 30.5C21 30.218182 21.218182 30 21.5 30L26.5 30C26.781818 30 27 30.218182 27 30.5L27 40.5C27 41.133333 27.236798 41.80711 27.714844 42.285156C28.19289 42.763202 28.866667 43 29.5 43L39.5 43C40.133333 43 40.80711 42.763202 41.285156 42.285156C41.763202 41.80711 42 41.133333 42 40.5L42 21.400391C42 19.155946 41.012069 16.901298 39.087891 15.490234L24.929688 4.3222656 A 1.50015 1.50015 0 0 0 23.951172 4 z M 24 7.4101562L37.271484 17.876953 A 1.50015 1.50015 0 0 0 37.3125 17.910156C38.388318 18.699095 39 20.044835 39 21.400391L39 40L30 40L30 30.5C30 28.581818 28.418182 27 26.5 27L21.5 27C19.581818 27 18 28.581818 18 30.5L18 40L9 40L9 21.400391C9 20.100391 9.7060794 18.680715 10.726562 17.878906 A 1.50015 1.50015 0 0 0 10.728516 17.876953L24 7.4101562 z" fill="#FFFFFF" />
</svg>