<?xml version="1.0" encoding="utf-8"?>
<svg xmlns="http://www.w3.org/2000/svg" viewBox="0 0 48 48" width="48" height="48">
  <path d="M24 4C23.098214 4 22.318385 4.4308638 21.748047 4.9511719C21.177709 5.47148 20.743371 6.1017295 20.353516 6.8007812C19.573804 8.1988851 18.982066 9.8992818 18.496094 11.583984C18.302817 12.25401 18.359292 12.273773 18.203125 12.914062C18.144162 12.815076 18.12474 12.701758 18.060547 12.605469C17.557539 11.850957 16.75 11 15.5 11C14.175 11 13.213004 11.845238 12.488281 12.789062C11.763558 13.732888 11.165744 14.921518 10.597656 16.304688C9.4614811 19.071027 8.4861414 22.618893 7.6640625 26.160156C6.0199048 33.242682 5.015625 40.287109 5.015625 40.287109 A 1.50015 1.50015 0 0 0 6.5 42L17.5 42 A 1.50015 1.50015 0 0 0 18.970703 40.794922C18.970703 40.794922 19.455402 38.410544 20.443359 36.085938C20.937338 34.923634 21.562363 33.796474 22.214844 33.050781C22.867325 32.305088 23.430556 32 24 32C24.569444 32 25.132675 32.305088 25.785156 33.050781C26.437637 33.796474 27.062662 34.923634 27.556641 36.085938C28.544598 38.410544 29.029297 40.794922 29.029297 40.794922 A 1.50015 1.50015 0 0 0 30.5 42L41.5 42 A 1.50015 1.50015 0 0 0 42.988281 40.306641C42.988281 40.306641 42.232482 34.512778 40.964844 28.681641C40.331024 25.766072 39.576443 22.843575 38.677734 20.546875C38.22838 19.398525 37.754795 18.407453 37.15625 17.597656C36.557705 16.78786 35.71875 16 34.5 16C33.275 16 32.338993 16.70912 31.691406 17.449219C31.44675 17.728826 31.32479 18.060125 31.126953 18.365234C30.865752 16.705538 30.896224 16.272796 30.396484 14.15625C29.851631 11.848635 29.172392 9.5256162 28.263672 7.65625C27.809312 6.7215669 27.302015 5.8933887 26.638672 5.2207031C25.975329 4.5480176 25.0625 4 24 4 z M 24 7C24.0625 7 24.196546 7.014482 24.503906 7.3261719C24.811267 7.6378613 25.1985 8.2159331 25.564453 8.96875C26.296358 10.474384 26.960869 12.651365 27.478516 14.84375C28.513808 19.228519 29.009766 23.666016 29.009766 23.666016 A 1.50015 1.50015 0 0 0 31.955078 23.863281C31.955078 23.863281 32.310015 22.46849 32.925781 21.125C33.233664 20.453255 33.612431 19.810682 33.949219 19.425781C34.204816 19.13367 34.345562 19.061532 34.423828 19.033203C34.47303 19.074188 34.581818 19.161933 34.742188 19.378906C35.073329 19.826922 35.49037 20.632725 35.884766 21.640625C36.673557 23.656425 37.418976 26.483928 38.035156 29.318359C39.084048 34.14326 39.532639 37.66219 39.716797 39L31.59375 39C31.408055 38.181806 31.196392 36.980022 30.318359 34.914062C29.749838 33.576366 29.031113 32.203526 28.042969 31.074219C27.054825 29.944912 25.680556 29 24 29C22.319444 29 20.945175 29.944912 19.957031 31.074219C18.968887 32.203526 18.250162 33.576366 17.681641 34.914062C16.803608 36.980022 16.591945 38.181806 16.40625 39L8.3046875 39C8.514976 37.588054 9.1783475 32.903306 10.585938 26.839844C11.388858 23.381107 12.351019 19.928973 13.371094 17.445312C13.881131 16.203482 14.416128 15.204611 14.867188 14.617188C15.137343 14.265356 15.303077 14.135469 15.404297 14.070312C15.439907 14.10776 15.474306 14.13431 15.564453 14.269531C15.811445 14.64002 16.099889 15.295761 16.326172 15.974609C16.778738 17.332307 17.019531 18.746094 17.019531 18.746094 A 1.50015 1.50015 0 0 0 19.982422 18.728516C19.982422 18.728516 20.47585 15.54661 21.378906 12.416016C21.830434 10.850719 22.394946 9.3011149 22.974609 8.2617188C23.264444 7.7420225 23.560572 7.356645 23.769531 7.1660156C23.97849 6.9753862 24.026786 7 24 7 z" fill="#FFFFFF" />
</svg>