<?xml version="1.0" encoding="utf-8"?>
<svg xmlns="http://www.w3.org/2000/svg" viewBox="0 0 48 48" width="48" height="48">
  <path d="M16 8C12.980226 8 10.5 10.480226 10.5 13.5L10.5 34.5C10.5 37.519774 12.980226 40 16 40L32 40C35.019774 40 37.5 37.519774 37.5 34.5L37.5 15.5 A 1.50015 1.50015 0 0 0 37.060547 14.439453L31.060547 8.4394531 A 1.50015 1.50015 0 0 0 30 8L16 8 z M 16 11L29.378906 11L34.5 16.121094L34.5 34.5C34.5 35.898226 33.398226 37 32 37L16 37C14.601774 37 13.5 35.898226 13.5 34.5L13.5 13.5C13.5 12.101774 14.601774 11 16 11 z M 20 19C18.343 19 17 20.343 17 22L17 30C17 31.657 18.343 33 20 33L28 33C29.657 33 31 31.657 31 30L31 22C31 20.343 29.657 19 28 19L20 19 z" fill="#FFFFFF" />
</svg>