<?xml version="1.0" encoding="utf-8"?>
<svg xmlns="http://www.w3.org/2000/svg" viewBox="0 0 48 48" width="48" height="48">
  <path d="M36.886719 7.0976562C35.596746 7.155645 34.325741 7.6941814 33.382812 8.6894531 A 1.50015 1.50015 0 0 0 33.380859 8.6914062L28.597656 13.755859L13.644531 9.3144531L13.691406 9.3300781C11.99063 8.7626393 10.095367 9.2648505 8.8984375 10.617188C7.6020481 12.081559 7.9093591 14.334884 9.4023438 15.496094 A 1.50015 1.50015 0 0 0 9.453125 15.533203L19.855469 22.962891L14.914062 28.080078L12.955078 27.476562C11.294976 26.749339 9.3416963 27.081256 8.0292969 28.347656C6.6704667 29.657072 6.6889705 31.84522 8.0039062 33.160156 A 1.50015 1.50015 0 0 0 8.1933594 33.320312L9.4472656 34.216797L9.6757812 33.880859C8.628274 35.42899 8.8296213 37.527232 10.150391 38.849609C11.47159 40.170808 13.569119 40.373703 15.119141 39.330078L14.787109 39.554688L15.681641 40.808594 A 1.50015 1.50015 0 0 0 15.841797 40.998047C17.157605 42.313855 19.345037 42.330877 20.654297 40.972656C21.918295 39.661258 22.251134 37.710812 21.525391 36.050781L20.921875 34.087891L26.039062 29.146484L33.46875 39.548828 A 1.50015 1.50015 0 0 0 33.503906 39.599609C34.664855 41.092762 36.919407 41.400779 38.384766 40.103516 A 1.50015 1.50015 0 0 0 38.386719 40.103516C39.73856 38.90553 40.237815 37.009864 39.671875 35.310547L39.6875 35.357422L35.246094 20.404297L40.310547 15.621094 A 1.50015 1.50015 0 0 0 40.3125 15.619141C42.302764 13.733551 42.468229 10.540639 40.609375 8.4941406 A 1.50015 1.50015 0 0 0 40.509766 8.3925781C39.486747 7.4626943 38.176692 7.0396675 36.886719 7.0976562 z M 37.011719 10.148438C37.534401 10.123527 38.043778 10.285338 38.414062 10.587891C39.03485 11.349768 38.976892 12.749216 38.25 13.439453L32.515625 18.857422 A 1.50015 1.50015 0 0 0 32.107422 20.375L36.810547 36.212891 A 1.50015 1.50015 0 0 0 36.826172 36.259766C37.016232 36.830449 36.854642 37.451408 36.396484 37.857422C36.258343 37.979717 36.028064 37.952723 35.875 37.757812L27.470703 25.986328 A 1.50015 1.50015 0 0 0 25.208984 25.779297L18.175781 32.568359 A 1.50015 1.50015 0 0 0 17.783203 34.089844L18.664062 36.951172 A 1.50015 1.50015 0 0 0 18.755859 37.179688C19.042541 37.753051 18.936598 38.431575 18.494141 38.890625C18.365836 39.023727 18.144352 39.011357 17.988281 38.876953L16.378906 36.621094 A 1.50015 1.50015 0 0 0 14.318359 36.25L13.443359 36.841797L13.443359 36.839844C13.067747 37.093372 12.591222 37.048254 12.271484 36.728516C11.951197 36.407838 11.908199 35.932097 12.160156 35.560547 A 1.50015 1.50015 0 0 0 12.160156 35.558594L12.751953 34.683594 A 1.50015 1.50015 0 0 0 12.380859 32.623047L10.125 31.013672C9.99014 30.857286 9.9761199 30.636099 10.109375 30.507812 A 1.50015 1.50015 0 0 0 10.111328 30.505859C10.570101 30.063166 11.248273 29.959098 11.822266 30.246094 A 1.50015 1.50015 0 0 0 12.050781 30.337891L14.912109 31.21875 A 1.50015 1.50015 0 0 0 16.433594 30.826172L23.222656 23.792969 A 1.50015 1.50015 0 0 0 23.015625 21.53125L11.244141 13.126953C11.047095 12.972188 11.021366 12.744594 11.144531 12.605469C11.549601 12.147805 12.171016 11.985223 12.742188 12.175781 A 1.50015 1.50015 0 0 0 12.789062 12.191406L28.626953 16.894531 A 1.50015 1.50015 0 0 0 30.144531 16.486328L35.5625 10.751953C35.916607 10.379042 36.461324 10.174668 37.011719 10.148438 z" fill="#FFFFFF" />
</svg>