<?xml version="1.0" encoding="utf-8"?>
<svg xmlns="http://www.w3.org/2000/svg" viewBox="0 0 48 48" width="48" height="48">
  <path d="M15.476562 9.9785156 A 1.50015 1.50015 0 0 0 15.259766 10L14.044922 10C10.089532 10 6.5372738 12.46129 5.1484375 16.164062 A 1.50015 1.50015 0 0 0 5.1074219 16.291016L4.1328125 19.814453C3.3327664 20.228953 2.6134827 20.787517 2.0253906 21.488281C0.69185645 23.077307 2.9605947e-16 25.272943 0 27.824219L0 32.5 A 1.50015 1.50015 0 0 0 1.2539062 33.980469L6.3203125 34.824219C6.5265931 35.391025 6.8328753 35.928684 7.2539062 36.402344C8.1121484 37.367867 9.4583337 38 11 38C12.541666 38 13.887852 37.367867 14.746094 36.402344C15.122381 35.979021 15.395525 35.500561 15.599609 35L34.400391 35C34.604475 35.500561 34.877619 35.979021 35.253906 36.402344C36.112148 37.367867 37.458334 38 39 38C40.541666 38 41.887852 37.367867 42.746094 36.402344C43.122381 35.979021 43.395525 35.500561 43.599609 35L46.5 35 A 1.50015 1.50015 0 0 0 48 33.5L48 25.5C48 24.121843 47.164299 22.937695 45.990234 22.369141C45.975564 21.120489 45.019849 20.047611 43.775391 19.910156L36.535156 19.105469L33.986328 13.123047 A 1.50015 1.50015 0 0 0 33.947266 13.039062C33.931808 13.008171 33.910525 12.981685 33.894531 12.951172 A 1.50015 1.50015 0 0 0 33.5 10L29.5 10 A 1.50015 1.50015 0 0 0 29.265625 10.017578C29.18566 10.014073 29.107867 10 29.027344 10L24.746094 10 A 1.50015 1.50015 0 0 0 24.259766 10L15.746094 10 A 1.50015 1.50015 0 0 0 15.476562 9.9785156 z M 17 13L23 13L23 19L17 19L17 13 z M 26 13L29.027344 13C29.976368 13 30.835944 13.532337 31.261719 14.380859C31.261719 14.380859 31.263672 14.382812 31.263672 14.382812L33.230469 19L26 19L26 13 z M 14 13.007812L14 19L7.5 19C7.4894675 19 7.4792741 19.00191 7.46875 19.001953L7.9667969 17.199219C8.9198422 14.684262 11.311825 13.026868 14 13.007812 z M 7.5 22L15.253906 22 A 1.50015 1.50015 0 0 0 15.740234 22L24.253906 22 A 1.50015 1.50015 0 0 0 24.740234 22L35.130859 22 A 1.50015 1.50015 0 0 0 35.742188 22.037109L43 22.84375L43 23.5 A 1.50015 1.50015 0 0 0 44.5 25C44.795045 25 45 25.204955 45 25.5L45 32L43.900391 32C43.73843 31.133217 43.367133 30.296326 42.746094 29.597656C41.887852 28.632133 40.541666 28 39 28C37.458334 28 36.112148 28.632133 35.253906 29.597656C34.632867 30.296326 34.26157 31.133217 34.099609 32L15.900391 32C15.73843 31.133217 15.367133 30.296326 14.746094 29.597656C13.887852 28.632133 12.541666 28 11 28C9.4583337 28 8.1121484 28.632133 7.2539062 29.597656C6.6920321 30.229765 6.3481851 30.977777 6.1640625 31.755859L3 31.228516L3 27.824219C3 25.813495 3.5412529 24.34899 4.3242188 23.416016C5.1071846 22.483041 6.1239168 22 7.5 22 z M 11 31C11.791666 31 12.195482 31.242867 12.503906 31.589844C12.81233 31.936821 13 32.458333 13 33C13 33.541667 12.81233 34.063179 12.503906 34.410156C12.195482 34.757133 11.791666 35 11 35C10.208334 35 9.8045176 34.757133 9.4960938 34.410156C9.1876697 34.063179 9 33.541667 9 33C9 32.458333 9.1876698 31.936821 9.4960938 31.589844C9.8045176 31.242867 10.208334 31 11 31 z M 39 31C39.791666 31 40.195482 31.242867 40.503906 31.589844C40.81233 31.936821 41 32.458333 41 33C41 33.541667 40.81233 34.063179 40.503906 34.410156C40.195482 34.757133 39.791666 35 39 35C38.208334 35 37.804518 34.757133 37.496094 34.410156C37.18767 34.063179 37 33.541667 37 33C37 32.458333 37.18767 31.936821 37.496094 31.589844C37.804518 31.242867 38.208334 31 39 31 z" fill="#FFFFFF" />
</svg>