<?xml version="1.0" encoding="utf-8"?>
<svg xmlns="http://www.w3.org/2000/svg" viewBox="0 0 48 48" width="48" height="48">
  <path d="M24 4C18.494917 4 14 8.494921 14 14C14 19.505079 18.494917 24 24 24C29.505083 24 34 19.505079 34 14C34 8.494921 29.505083 4 24 4 z M 24 7C27.883764 7 31 10.116238 31 14C31 17.883762 27.883764 21 24 21C20.116236 21 17 17.883762 17 14C17 10.116238 20.116236 7 24 7 z M 12.5 28C10.035294 28 8 30.035294 8 32.5L8 33.699219C8 36.640523 9.8723857 39.275984 12.71875 41.089844C15.565114 42.903703 19.455814 44 24 44C28.544186 44 32.434886 42.903703 35.28125 41.089844C38.127614 39.275984 40 36.640523 40 33.699219L40 32.5C40 30.035294 37.964706 28 35.5 28L12.5 28 z M 12.5 31L35.5 31C36.435294 31 37 31.564706 37 32.5L37 33.699219C37 35.357914 35.921604 37.124406 33.667969 38.560547C31.414333 39.996687 28.055814 41 24 41C19.944186 41 16.585667 39.996687 14.332031 38.560547C12.078396 37.124406 11 35.357914 11 33.699219L11 32.5C11 31.564706 11.564706 31 12.5 31 z" fill="#FFFFFF" />
</svg>