<svg class="" viewBox="0 0 32 32" fill="none" xmlns="http://www.w3.org/2000/svg">
    <path d="M0.599609 24.4616C0.81335 24.034 1.1225 23.7438 1.66067 23.7706C1.66067 23.4117 1.66067 23.0681 1.66067 22.7245C1.66448 20.9913 2.84387 19.7887 4.56906 19.7696C6.93166 19.7467 9.22937 19.365 11.4622 18.5938C13.4317 17.9142 15.1263 18.3036 16.5309 19.8613C16.5424 19.8765 16.5653 19.8842 16.5996 19.9071C16.634 19.8803 16.6721 19.8498 16.7065 19.8154C18.05 18.3533 19.6798 17.9104 21.5538 18.5403C23.9011 19.3306 26.3019 19.7544 28.7828 19.7735C30.2981 19.7849 31.5004 21.018 31.5347 22.5336C31.5424 22.9383 31.5347 23.343 31.5347 23.7438C32.3363 23.8546 32.5996 24.16 32.5996 24.9464C32.5996 26.1566 32.5996 27.363 32.5996 28.5732C32.5996 29.2795 32.2294 29.646 31.5195 29.646C27.7714 29.646 24.0195 29.646 20.2714 29.646H19.8935C19.3286 31.2952 18.2179 32.2153 16.4546 32.2C15.0156 32.1847 13.924 31.2761 13.3134 29.646H12.9508C9.25228 29.646 5.55381 29.6383 1.85915 29.6536C1.27899 29.6536 0.851518 29.4971 0.599609 28.9588V24.4577V24.4616ZM2.49273 27.7753H2.8744C6.3515 27.7753 9.83243 27.7753 13.3095 27.7753C14.3248 27.7753 14.8897 28.2143 15.1568 29.1955C15.3439 29.8903 15.924 30.3408 16.6149 30.337C17.2904 30.3332 17.8591 29.8789 18.0462 29.1993C18.3172 28.1991 18.8782 27.7715 19.9202 27.7715C23.3973 27.7715 26.8782 27.7715 30.3553 27.7715H30.7065V25.645C30.5882 25.645 30.4851 25.645 30.3821 25.645C27.0271 25.645 23.6759 25.645 20.321 25.645C19.1645 25.645 18.1645 26.023 17.3172 26.8171C16.8439 27.2599 16.3477 27.2637 15.8782 26.8171C15.0347 26.0192 14.0347 25.6412 12.8782 25.6412C9.52327 25.645 6.17213 25.6412 2.81717 25.6412H2.48893V27.7677L2.49273 27.7753ZM17.5843 24.3547C17.6149 24.347 17.6645 24.3394 17.7103 24.3203C18.6149 23.8965 19.5729 23.7629 20.5653 23.7667C23.4698 23.7782 26.3744 23.7706 29.2828 23.7706H29.6645C29.6645 23.3888 29.6645 23.0452 29.6645 22.7054C29.6645 22.0182 29.2905 21.6823 28.5996 21.6403C27.4279 21.5678 26.2523 21.4952 25.0882 21.3463C23.6072 21.1593 22.1874 20.7126 20.7675 20.2659C19.3248 19.8116 17.8248 20.7164 17.6034 22.2015C17.5004 22.9001 17.5843 23.6293 17.5843 24.3547ZM3.53855 23.7744H3.94692C6.89349 23.7744 9.84007 23.7744 12.7866 23.7744C13.0576 23.7744 13.3324 23.7591 13.5958 23.8126C14.2828 23.9538 14.9622 24.1294 15.6607 24.2936C15.6607 23.8316 15.6607 23.3124 15.6607 22.7971C15.6569 20.8959 14.0729 19.7429 12.2561 20.3117C11.5309 20.5408 10.8095 20.7699 10.0729 20.9569C8.25992 21.4189 6.41257 21.6403 4.54234 21.6479C3.96982 21.6479 3.56145 22.0144 3.53855 22.5451C3.52328 22.9383 3.53855 23.3354 3.53855 23.7744Z" fill="black"></path>
    <path d="M27.8515 0.200195C27.9126 0.238372 27.9698 0.276549 28.0309 0.310908C28.424 0.528516 28.6187 0.952279 28.5118 1.35695C28.3973 1.78453 28.0347 2.07468 27.6072 2.07468C27.1836 2.07468 26.8134 1.78453 26.6988 1.36077C26.5882 0.956096 26.779 0.536151 27.1759 0.310908C27.237 0.276549 27.2943 0.238372 27.3553 0.200195C27.5233 0.200195 27.6874 0.200195 27.8553 0.200195H27.8515Z" fill="black"></path>
    <path d="M23.7217 4.9074C23.6912 6.19014 23.2943 7.25909 22.7752 8.28605C22.6149 8.5991 22.3248 8.90833 22.321 9.22138C22.321 9.51916 22.6225 9.81694 22.7752 10.1224C23.2447 11.0462 23.5958 12.0083 23.7027 13.0505C23.9088 15.0433 22.5118 16.5132 20.5271 16.2955C19.8248 16.2192 19.1225 16.0169 18.447 15.784C17.8935 15.5931 17.3744 15.2839 16.8553 15.0013C16.6683 14.9021 16.5424 14.8868 16.3477 15.0013C15.237 15.658 14.0767 16.1619 12.7714 16.3032C10.7103 16.5246 9.25992 15.0624 9.49656 12.9971C9.6416 11.7296 10.1263 10.5881 10.7675 9.5077C10.9049 9.27864 10.8973 9.1183 10.7675 8.89306C10.1263 7.81265 9.6416 6.67117 9.49656 5.4037C9.25992 3.33069 10.7294 1.86852 12.8057 2.10522C14.0424 2.24647 15.1569 2.71223 16.2141 3.33069C16.4889 3.49104 16.6798 3.50631 16.966 3.33833C18.0386 2.70078 19.1721 2.2312 20.4317 2.09758C22.0347 1.92961 23.3095 2.77331 23.6263 4.24312C23.6798 4.49509 23.695 4.75851 23.7141 4.9074H23.7217ZM16.5882 5.82746C15.3019 6.80479 14.1798 7.92337 13.2179 9.20611C14.2065 10.5041 15.321 11.6303 16.5958 12.5848C17.7752 11.7449 19.5767 9.92001 19.9584 9.1832C19.1416 8.04553 17.592 6.49937 16.5844 5.82746H16.5882ZM12.0462 7.32399C12.9355 6.43447 13.8439 5.52586 14.7294 4.64016C14.5347 4.55617 14.1912 4.37292 13.8248 4.26984C13.3401 4.13241 12.8363 4.00261 12.3363 3.97588C11.6721 3.94152 11.3744 4.28512 11.3592 4.95321C11.3592 5.06774 11.3668 5.18227 11.3821 5.2968C11.4698 6.07561 11.7676 6.78188 12.0462 7.32399ZM21.153 7.33163C21.4584 6.75134 21.7523 6.00307 21.8362 5.18227C21.9164 4.39201 21.5996 3.97588 20.8706 3.96825C19.9431 3.95679 19.1263 4.31947 18.4813 4.6478C19.363 5.53731 20.2637 6.44211 21.153 7.33163ZM14.8324 13.7033C13.9317 12.7871 13.0271 11.867 12.1263 10.947C11.7103 11.6914 11.4469 12.4855 11.3706 13.2032C11.2752 14.0889 11.7103 14.5318 12.5882 14.4402C13.4088 14.3562 14.1569 14.0622 14.8324 13.7033ZM21.1569 11.0882C20.2752 11.9739 19.3668 12.8864 18.4889 13.7682C19.0538 14.0622 19.7943 14.3562 20.6034 14.444C21.4737 14.5356 21.9164 14.1118 21.8362 13.2529C21.7599 12.4244 21.4584 11.6647 21.1569 11.092V11.0882Z" fill="black"></path>
    <path d="M3.59196 5.26626C4.0996 5.26244 4.52709 5.67857 4.53854 6.18632C4.54618 6.70553 4.11487 7.14456 3.59578 7.14074C3.09197 7.14074 2.66449 6.70934 2.66449 6.20541C2.66449 5.69766 3.08815 5.27008 3.59196 5.26626Z" fill="black"></path>
    <path d="M26.5882 12.768C27.0958 12.7642 27.5271 13.1765 27.5347 13.6842C27.5462 14.2035 27.1149 14.6425 26.5958 14.6387C26.092 14.6387 25.6645 14.2111 25.6645 13.7033C25.6645 13.1956 26.0843 12.768 26.5882 12.7642V12.768Z" fill="black"></path>
    <path d="M6.53855 15.2075C6.53855 15.7153 6.11489 16.139 5.60725 16.1428C5.09199 16.1467 4.65304 15.7038 4.66449 15.1884C4.67594 14.6807 5.10344 14.2645 5.61107 14.2684C6.11871 14.276 6.53855 14.6998 6.53855 15.2075Z" fill="black"></path>
    <path d="M16.6034 8.26696C17.1111 8.26696 17.5347 8.69072 17.5347 9.19847C17.5347 9.71768 17.0996 10.1491 16.5805 10.1414C16.0767 10.13 15.6569 9.69859 15.6645 9.19084C15.6721 8.68309 16.0996 8.26314 16.6034 8.26696Z" fill="black"></path>
</svg>