<svg viewBox="0 0 26 26" fill="black" xmlns="http://www.w3.org/2000/svg">
                                            <path d="M5 0C2.2545455 0 0 2.2545455 0 5L0 17C0 19.745455 2.2545455 22 5 22L17 22C19.745455 22 22 19.745455 22 17L22 5C22 2.2545455 19.745455 0 17 0L5 0 z M 5 2L17 2C18.654545 2 20 3.3454545 20 5L20 17C20 18.654545 18.654545 20 17 20L5 20C3.3454545 20 2 18.654545 2 17L2 5C2 3.3454545 3.3454545 2 5 2 z M 24 5.0253906L24 21C24 22.654 22.654 24 21 24L5.0253906 24C5.9383906 25.207 7.373 26 9 26L21 26C23.757 26 26 23.757 26 21L26 9C26 7.373 25.207 5.9383906 24 5.0253906 z M 15.173828 6.0058594C15.047953 6.0288594 14.932016 6.1013437 14.853516 6.2148438L10.072266 13.306641L7.9121094 11.146484C7.7171094 10.951484 7.4000781 10.951484 7.2050781 11.146484L6.1464844 12.207031C5.9514844 12.402031 5.9514844 12.719062 6.1464844 12.914062L9.3652344 16.134766C9.6012344 16.369766 9.92 16.5 10.25 16.5C10.287 16.5 10.324328 16.498141 10.361328 16.494141C10.730328 16.460141 11.067344 16.265937 11.277344 15.960938L16.910156 7.6347656C17.067156 7.4077656 17.010203 7.0964531 16.783203 6.9394531L15.548828 6.0878906C15.434828 6.0093906 15.299703 5.9828594 15.173828 6.0058594 z"></path>
                                        </svg>