<?xml version="1.0" encoding="UTF-8"?>
<svg xmlns="http://www.w3.org/2000/svg" xmlns:xlink="http://www.w3.org/1999/xlink" width="500pt" height="500pt" viewBox="0 0 500 500" version="1.1">
<g id="surface1">
<path style=" stroke:none;fill-rule:nonzero;fill:#FFFFFF;fill-opacity:1;" d="M 287.621094 84.789063 C 235.886719 84.789063 192.289063 115.675781 171.246094 159.425781 C 160.007813 151.675781 147.144531 146.058594 132.496094 146.058594 C 95.640625 146.058594 65.996094 175.238281 63.785156 211.550781 C 26.855469 224.917969 0 259.449219 0 300.875 C 0 353.769531 43.054688 396.824219 95.949219 396.824219 L 407.714844 396.824219 C 456.386719 396.824219 496.03125 357.179688 496.03125 308.507813 C 496.03125 263.363281 461.425781 227.359375 417.597656 222.207031 C 417.75 219.882813 418.0625 217.632813 418.0625 215.230469 C 418.0625 143.308594 359.546875 84.789063 287.621094 84.789063 Z M 287.621094 104.632813 C 348.851563 104.632813 398.21875 154.042969 398.21875 215.230469 C 398.21875 219.765625 397.871094 224.300781 397.289063 228.949219 L 395.894531 240.070313 L 407.132813 240.070313 C 408.335938 240.070313 408.488281 240.070313 407.714844 240.070313 C 445.652344 240.070313 476.191406 270.609375 476.191406 308.507813 C 476.191406 346.445313 445.652344 376.984375 407.714844 376.984375 L 95.949219 376.984375 C 53.789063 376.984375 19.839844 343.035156 19.839844 300.875 C 19.839844 265.804688 43.519531 236.507813 75.644531 227.632813 L 83.203125 225.539063 L 82.929688 217.75 C 82.890625 216.355469 82.8125 215.65625 82.8125 215.578125 C 82.8125 188.027344 104.941406 165.898438 132.496094 165.898438 C 146.289063 165.898438 158.652344 171.480469 167.644531 180.46875 L 178.570313 191.4375 L 183.996094 176.90625 C 199.574219 134.78125 239.917969 104.632813 287.621094 104.632813 Z M 188.492188 218.253906 C 177.523438 218.253906 168.652344 227.128906 168.652344 238.09375 C 168.652344 249.0625 177.523438 257.9375 188.492188 257.9375 C 199.460938 257.9375 208.332031 249.0625 208.332031 238.09375 C 208.332031 227.128906 199.460938 218.253906 188.492188 218.253906 Z M 307.539063 218.253906 C 296.574219 218.253906 287.699219 227.128906 287.699219 238.09375 C 287.699219 249.0625 296.574219 257.9375 307.539063 257.9375 C 318.507813 257.9375 327.382813 249.0625 327.382813 238.09375 C 327.382813 227.128906 318.507813 218.253906 307.539063 218.253906 Z M 248.015625 287.699219 C 188.296875 287.699219 151.25 330.792969 151.25 330.792969 C 148.808594 333.464844 147.996094 337.261719 149.160156 340.671875 C 150.28125 344.082031 153.226563 346.640625 156.753906 347.261719 C 160.320313 347.917969 163.960938 346.601563 166.210938 343.8125 C 166.210938 343.8125 197.871094 307.539063 248.015625 307.539063 C 298.160156 307.539063 329.824219 343.8125 329.824219 343.8125 C 332.070313 346.601563 335.710938 347.917969 339.277344 347.261719 C 342.804688 346.640625 345.75 344.082031 346.875 340.671875 C 348.035156 337.261719 347.222656 333.464844 344.78125 330.792969 C 344.78125 330.792969 307.734375 287.699219 248.015625 287.699219 Z "/>
</g>
</svg>
